<?xml version="1.0" standalone="no"?>
<!DOCTYPE svg PUBLIC "-//W3C//DTD SVG 20010904//EN"
 "http://www.w3.org/TR/2001/REC-SVG-20010904/DTD/svg10.dtd">
<svg version="1.0" xmlns="http://www.w3.org/2000/svg"
 width="400.000000pt" height="100.000000pt" viewBox="0 0 400.000000 100.000000"
 preserveAspectRatio="xMidYMid meet">

<g transform="translate(0.000000,100.000000) scale(0.100000,-0.100000)"
fill="#000000" stroke="none">
<path d="M1660 785 c-9 -11 -11 -57 -8 -189 4 -189 13 -219 64 -232 34 -9 74
11 74 36 0 20 -8 24 -47 20 -13 -1 -24 0 -25 2 -1 2 -4 86 -7 188 -5 158 -8
185 -22 188 -9 1 -22 -4 -29 -13z"/>
<path d="M445 759 c-16 -26 32 -216 84 -331 39 -89 59 -91 100 -10 48 94 92
233 94 292 2 49 0 55 -18 55 -16 0 -23 -14 -40 -80 -28 -112 -76 -238 -86
-228 -13 13 -67 185 -74 239 -4 27 -12 55 -17 62 -13 15 -35 16 -43 1z"/>
<path d="M2723 693 c-47 -104 -105 -279 -101 -306 2 -14 10 -22 23 -22 16 0
24 13 38 58 l18 57 68 0 68 0 12 -56 c13 -56 33 -76 54 -55 8 8 8 26 -1 69
-15 71 -90 302 -104 320 -22 26 -40 10 -75 -65z m77 -91 c10 -34 15 -63 12
-66 -7 -7 -92 -8 -92 -1 0 13 53 135 57 132 2 -3 12 -32 23 -65z"/>
<path d="M826 645 c-48 -17 -60 -29 -52 -50 5 -13 13 -16 34 -11 80 18 87 18
115 -4 16 -12 27 -31 27 -45 0 -23 -1 -23 -31 -8 -67 34 -149 -9 -149 -78 0
-75 94 -114 167 -69 32 19 33 19 43 0 13 -23 48 -27 56 -5 3 8 -3 30 -14 49
-15 26 -19 45 -15 75 8 62 -19 115 -72 141 -48 23 -57 24 -109 5z m88 -180
c16 -12 17 -17 6 -30 -18 -22 -77 -20 -89 3 -20 38 42 58 83 27z"/>
<path d="M1165 653 c-31 -8 -73 -52 -86 -91 -14 -42 -6 -122 16 -155 30 -46
109 -62 153 -31 32 22 54 68 39 83 -17 17 -33 13 -51 -14 -20 -30 -65 -34 -89
-7 -25 27 -22 103 4 136 26 33 54 33 75 1 18 -27 51 -33 60 -11 9 24 -24 73
-57 85 -18 6 -35 10 -38 10 -3 -1 -15 -3 -26 -6z"/>
<path d="M1401 647 c-42 -15 -61 -41 -43 -59 9 -9 19 -9 45 0 18 7 43 12 54
12 29 0 61 -29 69 -62 l6 -28 -38 16 c-43 18 -91 12 -126 -15 -31 -26 -32 -92
0 -123 30 -30 119 -33 151 -4 20 18 21 18 39 -4 36 -44 72 0 37 46 -9 11 -15
42 -15 79 0 63 -22 115 -57 133 -33 18 -87 22 -122 9z m88 -184 c23 -15 23
-17 6 -30 -26 -18 -84 -17 -91 2 -17 43 39 61 85 28z"/>
<path d="M1916 650 c-61 -19 -96 -76 -96 -157 0 -57 28 -109 66 -123 88 -34
164 26 164 130 0 46 -9 68 -53 123 -32 39 -35 40 -81 27z m49 -77 c18 -21 24
-40 25 -72 0 -53 -21 -81 -61 -81 -35 0 -49 24 -49 85 0 35 6 51 25 70 30 31
31 31 60 -2z"/>
<path d="M2131 646 c-18 -21 -26 -176 -12 -219 23 -69 87 -88 135 -41 14 15
26 32 27 38 0 6 6 -5 13 -24 9 -23 19 -35 32 -35 18 0 19 10 22 136 2 112 0
138 -13 149 -24 20 -41 -3 -59 -80 -20 -90 -50 -150 -76 -150 -26 0 -32 28
-29 128 4 104 -9 136 -40 98z"/>
<path d="M2438 646 c-10 -9 -12 -45 -8 -147 5 -126 6 -134 25 -134 21 0 20 -2
44 144 13 80 29 100 70 84 16 -6 34 -7 41 -3 19 12 7 44 -23 58 -32 15 -60 9
-87 -21 l-20 -21 0 21 c0 25 -25 37 -42 19z"/>
<path d="M2967 643 c-3 -4 -7 -97 -9 -205 -3 -201 1 -228 35 -215 10 4 16 30
21 85 l7 80 31 -15 c44 -23 96 -8 125 35 43 65 40 175 -8 223 -28 28 -93 26
-124 -5 -24 -24 -24 -24 -27 -2 -3 21 -41 35 -51 19z m174 -64 c16 -30 6 -115
-16 -139 -21 -23 -67 -26 -85 -5 -9 11 -10 25 0 65 21 87 74 129 101 79z"/>
<path d="M3275 618 c-3 -18 -5 -114 -3 -213 3 -175 4 -180 24 -183 26 -4 34
19 34 102 0 56 1 58 23 51 78 -25 125 -6 153 61 29 68 10 180 -34 203 -40 21
-88 13 -115 -19 l-26 -30 -3 28 c-2 19 -9 28 -25 30 -18 3 -23 -3 -28 -30z
m173 -31 c29 -35 21 -116 -15 -152 -20 -20 -56 -19 -75 3 -13 14 -14 24 -4 64
22 83 64 122 94 85z"/>
</g>
</svg>
