<!DOCTYPE svg PUBLIC "-//W3C//DTD SVG 1.1//EN" "http://www.w3.org/Graphics/SVG/1.1/DTD/svg11.dtd">
<!-- Uploaded to: SVG Repo, www.svgrepo.com, Transformed by: SVG Repo Mixer Tools -->
<svg width="64px" height="64px" viewBox="-6 -6 36.00 36.00" fill="none" xmlns="http://www.w3.org/2000/svg" stroke="#04e000" transform="matrix(1, 0, 0, 1, 0, 0)">
<g id="SVGRepo_bgCarrier" stroke-width="0">
<path transform="translate(-6, -6), scale(1.125)" d="M16,27.042958116158843C18.786228696501787,26.615070077463002,20.97837778751247,24.950400814468512,23.134205465613476,23.13420546561348C25.60015006914108,21.05674947738437,28.71192056606711,19.199971227835096,29.10801438288763,16C29.532385205720335,12.571583889145412,27.575193831531507,9.310197702046686,25.149853269441063,6.850146730558938C22.70603358160526,4.3713521681905245,19.460055346631897,2.324002630644591,16,2.7043894696980715C12.744340682280058,3.062305697283274,10.96810281743775,6.336213401918813,8.662689971511124,8.662689971511123C6.375672514558758,10.970603080110855,3.2747452798854613,12.782169808144921,2.824766811914742,15.999999999999998C2.329616899612758,19.54085462018905,3.5368788010439824,23.426356943659624,6.276990262848862,25.723009737151134C8.882855020406815,27.907142265455093,12.639257708795526,27.559075629897443,16,27.042958116158843" fill="#7ed0ec" strokewidth="0"/>
</g>
<g id="SVGRepo_tracerCarrier" stroke-linecap="round" stroke-linejoin="round"/>
<g id="SVGRepo_iconCarrier"> <path opacity="0.1" fill-rule="evenodd" clip-rule="evenodd" d="M3 12C3 4.5885 4.5885 3 12 3C19.4115 3 21 4.5885 21 12C21 16.3106 20.4627 18.6515 18.5549 19.8557L18.2395 18.878C17.9043 17.6699 17.2931 16.8681 16.262 16.3834C15.2532 15.9092 13.8644 15.75 12 15.75C10.134 15.75 8.74481 15.922 7.73554 16.4097C6.70593 16.9073 6.09582 17.7207 5.7608 18.927L5.45019 19.8589C3.53829 18.6556 3 16.3144 3 12ZM8.75 10C8.75 8.20507 10.2051 6.75 12 6.75C13.7949 6.75 15.25 8.20507 15.25 10C15.25 11.7949 13.7949 13.25 12 13.25C10.2051 13.25 8.75 11.7949 8.75 10Z" fill="#4b4a49"/> <path d="M3 12C3 4.5885 4.5885 3 12 3C19.4115 3 21 4.5885 21 12C21 19.4115 19.4115 21 12 21C4.5885 21 3 19.4115 3 12Z" stroke="#4b4a49" stroke-width="0.9600000000000002"/> <path d="M15 10C15 11.6569 13.6569 13 12 13C10.3431 13 9 11.6569 9 10C9 8.34315 10.3431 7 12 7C13.6569 7 15 8.34315 15 10Z" stroke="#4b4a49" stroke-width="0.9600000000000002"/> <path d="M6 19C6.63819 16.6928 8.27998 16 12 16C15.72 16 17.3618 16.6425 18 18.9497" stroke="#4b4a49" stroke-width="0.9600000000000002" stroke-linecap="round"/> </g>
</svg>