<svg version="1.1" id="Layer_1" xmlns="http://www.w3.org/2000/svg" xmlns:xlink="http://www.w3.org/1999/xlink" x="0px" y="0px"
	 width="100%" viewBox="0 0 400 100" enable-background="new 0 0 400 100" xml:space="preserve">
<path fill="#FEFEFE" opacity="1.000000" stroke="none" 
	d="
M293.000000,101.000000 
	C195.333344,101.000000 98.166687,101.000000 1.000026,101.000000 
	C1.000017,67.666679 1.000017,34.333366 1.000009,1.000035 
	C134.333298,1.000023 267.666595,1.000023 400.999939,1.000012 
	C400.999939,34.333298 400.999939,67.666595 400.999969,100.999947 
	C365.166656,101.000000 329.333344,101.000000 293.000000,101.000000 
M152.175812,49.019215 
	C150.632889,48.432632 148.927628,47.105724 147.578247,47.401653 
	C143.889786,48.210548 139.557755,48.858009 137.035599,51.225792 
	C135.385086,52.775299 135.522324,57.539566 136.505035,60.271873 
	C137.927155,64.225868 142.098404,65.515999 146.082138,64.908920 
	C149.376312,64.406921 152.508698,62.843258 154.383453,62.203575 
	C157.000809,63.290939 159.367432,65.177834 160.590424,64.608414 
	C163.916046,63.060009 161.455536,60.540871 160.736389,58.291138 
	C160.019974,56.050064 159.196991,53.625435 159.370529,51.353848 
	C160.296707,39.230515 150.767624,31.960251 139.754578,36.836849 
	C138.127075,37.557507 137.253326,39.980339 136.030838,41.615643 
	C137.883575,41.769398 139.931931,42.512463 141.554779,41.973713 
	C148.168594,39.778072 152.024139,41.718285 153.264771,48.763264 
	C153.264771,48.763264 152.938797,49.067467 152.175812,49.019215 
M320.931519,56.115017 
	C321.271179,53.653809 321.906036,51.190586 321.889252,48.731808 
	C321.853943,43.558491 320.746338,38.654423 315.508270,36.166584 
	C310.464355,33.770935 306.691193,36.408649 303.945465,39.497181 
	C302.555054,38.037930 301.318573,36.740200 300.082062,35.442463 
	C299.063049,36.543087 297.196808,37.612686 297.155212,38.749107 
	C296.705109,51.040356 296.449707,63.342094 296.448822,75.640984 
	C296.448730,76.816078 298.526031,77.991318 299.638916,79.166489 
	C300.504944,77.966728 301.936859,76.851875 302.131958,75.551468 
	C302.740967,71.492203 302.882324,67.362778 303.209259,63.206081 
	C313.534149,66.428818 316.724884,65.242546 320.931519,56.115017 
M327.833710,62.494835 
	C327.828857,66.486595 327.529877,70.510399 327.959534,74.454826 
	C328.139130,76.103569 329.866547,77.583702 330.890198,79.140511 
	C331.864380,77.661774 333.439087,76.278702 333.692932,74.685219 
	C334.299347,70.878441 334.283203,66.972481 334.535309,62.829670 
	C344.361511,66.978050 350.399994,64.123848 352.590393,54.878071 
	C353.081909,52.803535 353.141968,50.590656 353.137726,48.441986 
	C353.127441,43.197613 351.955444,38.366852 346.570526,36.079033 
	C341.400055,33.882324 337.656403,36.488392 335.263397,39.813683 
	C333.817505,38.283318 332.477112,36.864643 331.136719,35.445961 
	C330.141815,37.311634 328.410980,39.128990 328.284760,41.051704 
	C327.838654,47.847282 327.941772,54.678917 327.833710,62.494835 
M269.942078,57.360779 
	C270.252869,54.550594 271.757874,53.369331 274.630798,53.518341 
	C276.778259,53.629719 279.030457,52.898445 281.080658,53.312187 
	C282.563507,53.611427 284.099304,54.949272 285.040131,56.240314 
	C285.858215,57.362907 285.543182,59.290867 286.326233,60.464317 
	C287.429962,62.118359 289.084839,63.404633 290.504120,64.848145 
	C291.000061,62.986572 292.313904,60.891304 291.859558,59.301250 
	C288.850861,48.771141 285.541290,38.323528 282.110138,27.921474 
	C281.616730,26.425667 279.942200,25.319458 278.814270,24.032959 
	C277.503571,25.334991 275.602356,26.402985 274.978424,27.977213 
	C271.066742,37.846947 267.264282,47.770206 263.866302,57.824677 
	C263.185516,59.839104 263.942200,64.321983 264.824982,64.545097 
	C269.047211,65.612183 268.447357,61.505127 269.382812,59.094013 
	C269.503174,58.783745 269.614929,58.470135 269.942078,57.360779 
M93.238922,36.038513 
	C88.916672,36.573856 84.553276,36.914623 80.307617,37.812233 
	C79.479691,37.987270 79.109138,40.325676 78.527626,41.666237 
	C79.952362,42.035034 81.396103,42.751816 82.796509,42.675312 
	C84.213219,42.597927 85.547417,41.505299 86.986656,41.257397 
	C92.463493,40.314041 96.090553,43.793358 95.542305,49.311012 
	C88.255775,46.192886 82.156548,46.820087 79.175690,50.994030 
	C76.960732,54.095524 77.382248,59.249260 80.079979,62.050488 
	C84.136841,66.262985 90.782524,65.968201 96.436348,62.114643 
	C99.431046,63.125042 101.556259,63.842075 103.681465,64.559113 
	C103.437012,62.346008 103.246445,60.125214 102.932175,57.922070 
	C102.647720,55.927971 101.817154,53.926716 101.942566,51.974564 
	C102.385048,45.086800 100.639877,39.471973 93.238922,36.038513 
M70.247986,43.836212 
	C71.593369,38.533829 73.106697,33.264027 74.146965,27.902445 
	C74.363350,26.787245 72.827660,25.332106 72.099419,24.033628 
	C70.977982,24.978342 69.629295,25.762209 68.809486,26.920418 
	C68.191933,27.792879 68.334259,29.169977 67.997490,30.279707 
	C65.454620,38.659264 62.876888,47.028240 60.310043,55.400524 
	C59.508247,55.370888 58.706451,55.341255 57.904655,55.311619 
	C55.577595,46.218678 53.357330,37.095749 50.820869,28.061598 
	C50.385925,26.512440 48.602737,25.341818 47.442368,23.996332 
	C46.638512,25.559254 44.828644,27.417915 45.187611,28.638998 
	C48.498348,39.901020 51.937946,51.140793 55.888336,62.191029 
	C57.357288,66.300049 60.130985,66.266045 62.147236,62.299900 
	C65.071350,56.547909 67.442177,50.514641 70.247986,43.836212 
M218.766495,38.207466 
	C217.615387,37.302601 216.464279,36.397736 215.313187,35.492878 
	C214.501923,36.781307 213.172150,37.996483 212.977814,39.372059 
	C212.421585,43.309498 212.100906,47.312267 212.105362,51.288883 
	C212.111145,56.452885 212.018967,62.049969 217.877975,64.479790 
	C223.538467,66.827286 226.705475,62.730358 229.760925,58.343864 
	C230.074554,59.501694 230.077454,60.239124 230.435715,60.700748 
	C231.581635,62.177238 232.859283,63.551491 234.086105,64.965195 
	C234.764999,63.326466 235.996948,61.697372 236.025681,60.047318 
	C236.141418,53.404221 236.047577,46.744911 235.649597,40.114487 
	C235.553116,38.507061 234.001053,36.987000 233.118286,35.426758 
	C231.970337,36.775486 230.308609,37.946507 229.769272,39.505764 
	C228.043167,44.495869 227.007172,49.735184 225.117798,54.652786 
	C224.429855,56.443367 222.091431,57.599827 220.506012,59.045593 
	C219.680801,57.180328 218.211273,55.333717 218.156631,53.446144 
	C218.017715,48.648689 218.512100,43.832905 218.766495,38.207466 
M196.107803,64.973007 
	C206.587494,63.683506 209.066406,48.263691 203.067734,41.857555 
	C200.881317,39.522625 200.176743,34.907333 195.310165,35.319279 
	C187.739426,35.960117 182.709274,42.421131 182.867401,51.694733 
	C183.018173,60.536827 186.926956,64.731773 196.107803,64.973007 
M110.194534,60.087242 
	C116.040115,67.045799 125.919998,66.708160 129.544815,59.256165 
	C130.142242,58.027946 129.305496,56.102112 129.131561,54.498680 
	C127.768951,54.986858 125.798691,55.072647 125.158592,56.039276 
	C123.297638,58.849537 120.537354,60.250263 118.022171,58.732254 
	C116.048317,57.540955 114.705528,54.528286 114.105415,52.074554 
	C113.597328,49.997105 114.138809,47.399544 114.947151,45.315880 
	C116.904190,40.271267 120.619286,39.999931 124.172600,44.128868 
	C125.037842,45.134266 126.862083,45.314362 128.245377,45.873936 
	C128.563995,44.293159 129.484482,42.538540 129.087585,41.164429 
	C127.928001,37.149754 124.588577,35.484230 120.692726,35.359333 
	C115.986351,35.208450 112.258728,37.392159 110.163422,41.609261 
	C107.281029,47.410519 107.121925,53.408237 110.194534,60.087242 
M172.862732,57.107243 
	C172.606903,46.637924 172.454605,36.163956 171.984451,25.704268 
	C171.913284,24.120880 170.363205,22.603970 169.497192,21.056313 
	C168.396713,22.605129 166.366486,24.142349 166.347015,25.704647 
	C166.222580,35.681259 166.446579,45.666626 166.789993,55.641056 
	C166.861160,57.708298 167.556198,59.949841 168.594498,61.746517 
	C170.644684,65.294174 175.598602,66.222870 178.545792,63.735435 
	C179.380920,63.030579 180.137054,61.393738 179.880707,60.477848 
	C179.640579,59.619911 178.081741,58.951202 176.975555,58.563656 
	C175.750305,58.134407 174.380203,58.118584 172.862732,57.107243 
M263.172119,39.440857 
	C259.811890,34.224026 256.991638,34.033653 250.435303,37.951958 
	C248.472290,36.982140 247.050201,36.279560 245.628113,35.576988 
	C244.932602,37.087460 243.683548,38.581207 243.637329,40.111294 
	C243.436325,46.763790 243.407898,53.435528 243.731628,60.080067 
	C243.813553,61.761837 245.424561,63.369110 246.332947,65.010612 
	C247.335938,63.582832 248.896072,62.276340 249.238205,60.704697 
	C250.296677,55.842499 250.735092,50.847939 251.716003,45.965393 
	C252.484024,42.142517 254.442078,40.058060 258.879639,41.777676 
	C259.925415,42.182922 261.676056,40.769310 263.172119,39.440857 
z"/>
<path fill="#6622EC" opacity="1.000000" stroke="none" 
	d="
M320.817505,56.496643 
	C316.724884,65.242546 313.534149,66.428818 303.209259,63.206081 
	C302.882324,67.362778 302.740967,71.492203 302.131958,75.551468 
	C301.936859,76.851875 300.504944,77.966728 299.638916,79.166489 
	C298.526031,77.991318 296.448730,76.816078 296.448822,75.640984 
	C296.449707,63.342094 296.705109,51.040356 297.155212,38.749107 
	C297.196808,37.612686 299.063049,36.543087 300.082062,35.442467 
	C301.318573,36.740200 302.555054,38.037930 303.945465,39.497181 
	C306.691193,36.408649 310.464355,33.770935 315.508270,36.166584 
	C320.746338,38.654423 321.853943,43.558491 321.889252,48.731808 
	C321.906036,51.190586 321.271179,53.653809 320.817505,56.496643 
M304.275299,54.529026 
	C305.714111,56.044170 307.049866,58.637318 308.619141,58.787277 
	C310.373840,58.954964 313.373474,57.316246 313.998077,55.738079 
	C315.274261,52.513596 315.672485,48.805637 315.697388,45.291603 
	C315.706787,43.963406 313.767212,41.631638 312.569824,41.533039 
	C311.043610,41.407356 308.629486,42.692791 307.909851,44.060265 
	C306.327087,47.067871 305.568115,50.509026 304.275299,54.529026 
z"/>
<path fill="#631FEC" opacity="1.000000" stroke="none" 
	d="
M327.835175,61.995857 
	C327.941772,54.678917 327.838654,47.847282 328.284760,41.051704 
	C328.410980,39.128990 330.141815,37.311634 331.136719,35.445965 
	C332.477112,36.864643 333.817505,38.283318 335.263397,39.813683 
	C337.656403,36.488392 341.400055,33.882324 346.570526,36.079033 
	C351.955444,38.366852 353.127441,43.197613 353.137726,48.441986 
	C353.141968,50.590656 353.081909,52.803535 352.590393,54.878071 
	C350.399994,64.123848 344.361511,66.978050 334.535309,62.829670 
	C334.283203,66.972481 334.299347,70.878441 333.692932,74.685219 
	C333.439087,76.278702 331.864380,77.661774 330.890198,79.140503 
	C329.866547,77.583702 328.139130,76.103569 327.959534,74.454826 
	C327.529877,70.510399 327.828857,66.486595 327.835175,61.995857 
M347.168701,45.388504 
	C345.976929,43.985218 344.672241,41.358566 343.618958,41.455788 
	C341.895081,41.614910 339.779816,43.216934 338.836456,44.807499 
	C337.445709,47.152443 336.362671,49.996304 336.245056,52.675804 
	C336.157227,54.676510 337.367645,57.972755 338.788544,58.479046 
	C340.461334,59.075104 344.159241,57.871140 344.895630,56.402824 
	C346.427032,53.349384 346.584839,49.607071 347.168701,45.388504 
z"/>
<path fill="#631FEC" opacity="1.000000" stroke="none" 
	d="
M269.836365,57.759422 
	C269.614929,58.470135 269.503174,58.783745 269.382812,59.094013 
	C268.447357,61.505127 269.047211,65.612183 264.824982,64.545097 
	C263.942200,64.321983 263.185516,59.839104 263.866302,57.824677 
	C267.264282,47.770206 271.066742,37.846947 274.978424,27.977213 
	C275.602356,26.402985 277.503571,25.334991 278.814270,24.032957 
	C279.942200,25.319458 281.616730,26.425667 282.110138,27.921474 
	C285.541290,38.323528 288.850861,48.771141 291.859558,59.301250 
	C292.313904,60.891304 291.000061,62.986572 290.504089,64.848145 
	C289.084839,63.404633 287.429962,62.118359 286.326233,60.464317 
	C285.543182,59.290867 285.858215,57.362907 285.040131,56.240314 
	C284.099304,54.949272 282.563507,53.611427 281.080658,53.312187 
	C279.030457,52.898445 276.778259,53.629719 274.630798,53.518341 
	C271.757874,53.369331 270.252869,54.550594 269.836365,57.759422 
M277.673370,35.616035 
	C276.162079,39.536213 274.650757,43.456390 272.889893,48.023960 
	C276.590210,47.731247 279.420135,47.507385 283.307312,47.199890 
	C281.277832,42.528385 279.645630,38.771362 277.673370,35.616035 
z"/>
<path fill="#0A0A0A" opacity="1.000000" stroke="none" 
	d="
M93.608322,36.149742 
	C100.639877,39.471973 102.385048,45.086800 101.942566,51.974564 
	C101.817154,53.926716 102.647720,55.927971 102.932175,57.922070 
	C103.246445,60.125214 103.437012,62.346008 103.681465,64.559113 
	C101.556259,63.842075 99.431046,63.125042 96.436348,62.114643 
	C90.782524,65.968201 84.136841,66.262985 80.079979,62.050488 
	C77.382248,59.249260 76.960732,54.095524 79.175690,50.994030 
	C82.156548,46.820087 88.255775,46.192886 95.542305,49.311012 
	C96.090553,43.793358 92.463493,40.314041 86.986656,41.257397 
	C85.547417,41.505299 84.213219,42.597927 82.796509,42.675312 
	C81.396103,42.751816 79.952362,42.035034 78.527626,41.666237 
	C79.109138,40.325676 79.479691,37.987270 80.307617,37.812233 
	C84.553276,36.914623 88.916672,36.573856 93.608322,36.149742 
M86.844727,52.989613 
	C85.736725,54.125729 84.447746,55.155769 83.668831,56.484756 
	C83.507179,56.760563 85.289085,58.929134 86.087074,58.876942 
	C88.833473,58.697319 91.540794,57.920048 94.263000,57.370487 
	C94.245178,56.669159 94.227356,55.967831 94.209534,55.266502 
	C92.015663,54.496075 89.821785,53.725647 86.844727,52.989613 
z"/>
<path fill="#080808" opacity="1.000000" stroke="none" 
	d="
M153.630310,48.507935 
	C152.024139,41.718285 148.168594,39.778072 141.554779,41.973713 
	C139.931931,42.512463 137.883575,41.769398 136.030838,41.615643 
	C137.253326,39.980339 138.127075,37.557507 139.754578,36.836849 
	C150.767624,31.960251 160.296707,39.230515 159.370529,51.353848 
	C159.196991,53.625435 160.019974,56.050064 160.736389,58.291138 
	C161.455536,60.540871 163.916046,63.060009 160.590424,64.608414 
	C159.367432,65.177834 157.000809,63.290939 154.383453,62.203575 
	C152.508698,62.843258 149.376312,64.406921 146.082138,64.908920 
	C142.098404,65.515999 137.927155,64.225868 136.505035,60.271873 
	C135.522324,57.539566 135.385086,52.775299 137.035599,51.225792 
	C139.557755,48.858009 143.889786,48.210548 147.578247,47.401653 
	C148.927628,47.105724 150.632889,48.432632 152.620148,49.272579 
	C153.253082,49.186607 153.441696,48.847271 153.630310,48.507935 
M146.389069,59.142635 
	C148.201462,58.415699 150.013870,57.688766 151.826263,56.961834 
	C151.801468,56.230141 151.776657,55.498444 151.751846,54.766750 
	C148.792236,54.273293 145.842285,53.605755 142.864471,53.440426 
	C142.301804,53.409187 140.952957,56.157948 141.112350,56.295357 
	C142.437607,57.437965 144.031693,58.268764 146.389069,59.142635 
z"/>
<path fill="#0B0B0B" opacity="1.000000" stroke="none" 
	d="
M70.148483,44.218777 
	C67.442177,50.514641 65.071350,56.547909 62.147236,62.299900 
	C60.130985,66.266045 57.357288,66.300049 55.888336,62.191029 
	C51.937946,51.140793 48.498348,39.901020 45.187611,28.638998 
	C44.828644,27.417915 46.638512,25.559254 47.442368,23.996332 
	C48.602737,25.341818 50.385925,26.512440 50.820869,28.061598 
	C53.357330,37.095749 55.577595,46.218678 57.904655,55.311619 
	C58.706451,55.341255 59.508247,55.370888 60.310043,55.400524 
	C62.876888,47.028240 65.454620,38.659264 67.997490,30.279707 
	C68.334259,29.169977 68.191933,27.792879 68.809486,26.920418 
	C69.629295,25.762209 70.977982,24.978342 72.099419,24.033630 
	C72.827660,25.332106 74.363350,26.787245 74.146965,27.902445 
	C73.106697,33.264027 71.593369,38.533829 70.148483,44.218777 
z"/>
<path fill="#0E0E0E" opacity="1.000000" stroke="none" 
	d="
M218.759735,38.615959 
	C218.512100,43.832905 218.017715,48.648689 218.156631,53.446144 
	C218.211273,55.333717 219.680801,57.180328 220.506012,59.045597 
	C222.091431,57.599827 224.429855,56.443367 225.117798,54.652786 
	C227.007172,49.735184 228.043167,44.495869 229.769272,39.505764 
	C230.308609,37.946507 231.970337,36.775486 233.118286,35.426758 
	C234.001053,36.987000 235.553116,38.507061 235.649597,40.114487 
	C236.047577,46.744911 236.141418,53.404221 236.025681,60.047318 
	C235.996948,61.697372 234.764999,63.326466 234.086090,64.965195 
	C232.859283,63.551491 231.581635,62.177238 230.435715,60.700748 
	C230.077454,60.239124 230.074554,59.501694 229.760925,58.343864 
	C226.705475,62.730358 223.538467,66.827286 217.877975,64.479790 
	C212.018967,62.049969 212.111145,56.452885 212.105362,51.288883 
	C212.100906,47.312267 212.421585,43.309498 212.977814,39.372059 
	C213.172150,37.996483 214.501923,36.781307 215.313171,35.492874 
	C216.464279,36.397736 217.615387,37.302601 218.759735,38.615959 
z"/>
<path fill="#0C0C0C" opacity="1.000000" stroke="none" 
	d="
M195.698059,64.998978 
	C186.926956,64.731773 183.018173,60.536827 182.867401,51.694733 
	C182.709274,42.421131 187.739426,35.960117 195.310165,35.319279 
	C200.176743,34.907333 200.881317,39.522625 203.067734,41.857555 
	C209.066406,48.263691 206.587494,63.683506 195.698059,64.998978 
M199.845673,47.277321 
	C198.345001,45.223896 196.844330,43.170471 195.418839,41.219929 
	C189.496094,43.817245 187.224319,48.128868 189.122894,54.318687 
	C189.722168,56.272461 192.523102,58.816555 194.296051,58.800789 
	C196.197632,58.783875 198.669022,56.404190 199.778931,54.430000 
	C200.697617,52.795914 199.997208,50.251556 199.845673,47.277321 
z"/>
<path fill="#0C0C0C" opacity="1.000000" stroke="none" 
	d="
M110.033234,59.732506 
	C107.121925,53.408237 107.281029,47.410519 110.163422,41.609261 
	C112.258728,37.392159 115.986351,35.208450 120.692726,35.359333 
	C124.588577,35.484230 127.928001,37.149754 129.087585,41.164429 
	C129.484482,42.538540 128.563995,44.293159 128.245377,45.873936 
	C126.862083,45.314362 125.037842,45.134266 124.172600,44.128868 
	C120.619286,39.999931 116.904190,40.271267 114.947151,45.315880 
	C114.138809,47.399544 113.597328,49.997105 114.105415,52.074554 
	C114.705528,54.528286 116.048317,57.540955 118.022171,58.732254 
	C120.537354,60.250263 123.297638,58.849537 125.158592,56.039276 
	C125.798691,55.072647 127.768951,54.986858 129.131561,54.498680 
	C129.305496,56.102112 130.142242,58.027946 129.544815,59.256165 
	C125.919998,66.708160 116.040115,67.045799 110.033234,59.732506 
z"/>
<path fill="#0C0C0C" opacity="1.000000" stroke="none" 
	d="
M172.967957,57.514984 
	C174.380203,58.118584 175.750305,58.134407 176.975555,58.563656 
	C178.081741,58.951202 179.640579,59.619911 179.880707,60.477848 
	C180.137054,61.393738 179.380920,63.030579 178.545792,63.735435 
	C175.598602,66.222870 170.644684,65.294174 168.594498,61.746517 
	C167.556198,59.949841 166.861160,57.708298 166.789993,55.641056 
	C166.446579,45.666626 166.222580,35.681259 166.347015,25.704647 
	C166.366486,24.142349 168.396713,22.605129 169.497192,21.056311 
	C170.363205,22.603970 171.913284,24.120880 171.984451,25.704268 
	C172.454605,36.163956 172.606903,46.637924 172.967957,57.514984 
z"/>
<path fill="#080808" opacity="1.000000" stroke="none" 
	d="
M263.137268,39.816647 
	C261.676056,40.769310 259.925415,42.182922 258.879639,41.777676 
	C254.442078,40.058060 252.484024,42.142517 251.716003,45.965393 
	C250.735092,50.847939 250.296677,55.842499 249.238205,60.704697 
	C248.896072,62.276340 247.335938,63.582832 246.332947,65.010612 
	C245.424561,63.369110 243.813553,61.761837 243.731628,60.080067 
	C243.407898,53.435528 243.436325,46.763790 243.637329,40.111294 
	C243.683548,38.581207 244.932602,37.087460 245.628113,35.576984 
	C247.050201,36.279560 248.472290,36.982140 250.435303,37.951958 
	C256.991638,34.033653 259.811890,34.224026 263.137268,39.816647 
z"/>
<path fill="#F9F7FE" opacity="1.000000" stroke="none" 
	d="
M304.374084,54.151123 
	C305.568115,50.509026 306.327087,47.067871 307.909851,44.060265 
	C308.629486,42.692791 311.043610,41.407356 312.569824,41.533039 
	C313.767212,41.631638 315.706787,43.963406 315.697388,45.291603 
	C315.672485,48.805637 315.274261,52.513596 313.998077,55.738079 
	C313.373474,57.316246 310.373840,58.954964 308.619141,58.787277 
	C307.049866,58.637318 305.714111,56.044170 304.374084,54.151123 
z"/>
<path fill="#FAF7FE" opacity="1.000000" stroke="none" 
	d="
M347.237946,45.768192 
	C346.584839,49.607071 346.427032,53.349384 344.895630,56.402824 
	C344.159241,57.871140 340.461334,59.075104 338.788544,58.479046 
	C337.367645,57.972755 336.157227,54.676510 336.245056,52.675804 
	C336.362671,49.996304 337.445709,47.152443 338.836456,44.807499 
	C339.779816,43.216934 341.895081,41.614910 343.618958,41.455788 
	C344.672241,41.358566 345.976929,43.985218 347.237946,45.768192 
z"/>
<path fill="#EFE7FD" opacity="1.000000" stroke="none" 
	d="
M277.843414,35.315186 
	C279.645630,38.771362 281.277832,42.528385 283.307312,47.199890 
	C279.420135,47.507385 276.590210,47.731247 272.889893,48.023960 
	C274.650757,43.456390 276.162079,39.536213 277.843414,35.315186 
z"/>
<path fill="#EEEEEE" opacity="1.000000" stroke="none" 
	d="
M87.236320,52.972416 
	C89.821785,53.725647 92.015663,54.496075 94.209534,55.266502 
	C94.227356,55.967831 94.245178,56.669159 94.263000,57.370487 
	C91.540794,57.920048 88.833473,58.697319 86.087074,58.876942 
	C85.289085,58.929134 83.507179,56.760563 83.668831,56.484756 
	C84.447746,55.155769 85.736725,54.125729 87.236320,52.972416 
z"/>
<path fill="#F0F0F0" opacity="1.000000" stroke="none" 
	d="
M145.966827,59.168198 
	C144.031693,58.268764 142.437607,57.437965 141.112350,56.295357 
	C140.952957,56.157948 142.301804,53.409187 142.864471,53.440426 
	C145.842285,53.605755 148.792236,54.273293 151.751846,54.766750 
	C151.776657,55.498444 151.801468,56.230141 151.826263,56.961834 
	C150.013870,57.688766 148.201462,58.415699 145.966827,59.168198 
z"/>
<path fill="#FEFEFE" opacity="1.000000" stroke="none" 
	d="
M153.447540,48.635597 
	C153.441696,48.847271 153.253082,49.186607 153.001648,49.296707 
	C152.938797,49.067467 153.264771,48.763264 153.447540,48.635597 
z"/>
<path fill="#F9F9F9" opacity="1.000000" stroke="none" 
	d="
M199.929932,47.693916 
	C199.997208,50.251556 200.697617,52.795914 199.778931,54.430000 
	C198.669022,56.404190 196.197632,58.783875 194.296051,58.800789 
	C192.523102,58.816555 189.722168,56.272461 189.122894,54.318687 
	C187.224319,48.128868 189.496094,43.817245 195.418839,41.219929 
	C196.844330,43.170471 198.345001,45.223896 199.929932,47.693916 
z"/>
</svg>