<?xml version="1.0" standalone="no"?>
<!DOCTYPE svg PUBLIC "-//W3C//DTD SVG 20010904//EN"
 "http://www.w3.org/TR/2001/REC-SVG-20010904/DTD/svg10.dtd">
<svg version="1.0" xmlns="http://www.w3.org/2000/svg"
 width="367.000000pt" height="714.000000pt" viewBox="0 0 367.000000 714.000000"
 preserveAspectRatio="xMidYMid meet">

<g transform="translate(0.000000,714.000000) scale(0.100000,-0.100000)"
fill="#000000" stroke="none">
<path d="M1940 7119 c-145 -26 -258 -43 -357 -54 -82 -8 -118 -17 -133 -30
-23 -21 -47 -83 -55 -146 -9 -72 -19 -79 -110 -85 -83 -6 -186 -25 -365 -69
-58 -14 -126 -25 -151 -25 -112 0 -362 -66 -398 -104 -11 -12 -41 -70 -67
-130 -43 -100 -51 -111 -92 -135 -101 -59 -153 -126 -187 -245 -22 -76 -17
-184 12 -247 12 -24 35 -73 51 -109 34 -72 119 -173 185 -219 23 -16 92 -55
154 -86 84 -43 113 -62 117 -80 5 -18 12 -23 33 -22 27 2 28 0 35 -68 5 -38
15 -93 23 -121 18 -62 71 -138 91 -130 8 3 14 0 14 -7 0 -22 56 -91 103 -126
25 -18 56 -53 69 -77 13 -24 26 -44 30 -44 3 0 10 12 15 26 9 27 9 27 41 -24
18 -27 56 -72 84 -98 l51 -48 -18 -52 -18 -52 -81 -12 c-119 -17 -289 -63
-428 -116 -265 -100 -348 -169 -348 -288 0 -55 14 -93 46 -127 19 -19 29 -47
39 -105 8 -44 14 -89 15 -102 0 -13 -31 -66 -70 -120 -93 -129 -156 -243 -181
-323 -18 -60 -19 -70 -6 -101 19 -46 78 -75 184 -90 l79 -12 -4 -190 c-3 -181
-2 -202 32 -406 19 -118 49 -274 65 -345 16 -72 39 -184 51 -250 l22 -121 -41
-149 c-22 -83 -46 -188 -52 -235 -14 -100 -20 -702 -7 -803 10 -84 24 -112 89
-177 188 -188 570 -338 1049 -413 179 -27 517 -29 695 -3 447 64 841 226 1057
434 62 59 67 68 73 117 5 35 -2 127 -20 270 -31 249 -30 353 3 565 38 236 28
436 -29 607 -19 59 -20 65 -4 120 40 147 56 269 62 480 5 192 8 213 24 218 9
3 33 23 52 45 40 43 54 102 43 173 -14 86 -86 267 -124 309 -13 15 -14 40 -8
160 10 198 23 288 47 314 23 24 25 44 4 44 -23 0 -21 79 3 86 55 18 81 32 114
62 21 19 38 41 38 49 0 9 18 32 40 52 29 25 42 45 43 66 l2 30 -75 6 c-93 8
-154 37 -265 126 -44 36 -97 73 -117 84 -40 20 -120 25 -160 10 -16 -6 -42 -4
-79 5 -43 12 -66 13 -112 4 -59 -11 -88 -8 -47 5 12 4 19 12 17 18 -5 17 -103
21 -154 7 -27 -8 -67 -10 -115 -5 l-73 8 65 59 c36 32 90 76 120 97 31 22 73
58 94 82 108 124 135 142 260 168 194 40 375 107 444 166 43 36 119 136 137
179 19 46 20 207 1 270 -8 26 -33 77 -55 114 -36 59 -41 76 -42 132 -1 36 2
91 6 123 l7 57 -48 48 c-27 26 -110 101 -184 166 -117 104 -148 126 -240 169
-58 27 -118 59 -135 71 -76 56 -220 134 -325 175 l-114 46 -12 60 c-7 33 -15
95 -18 138 -10 134 -16 158 -43 168 -13 5 -44 9 -67 9 -33 0 -57 9 -100 37
-32 22 -59 48 -62 60 -10 39 -115 53 -234 32z m175 -24 c18 -4 25 -13 29 -38
6 -40 36 -319 36 -329 0 -16 -48 -7 -54 9 -6 15 -25 225 -26 279 0 31 -47 48
-112 39 -112 -15 -404 -66 -438 -76 -50 -16 -60 -27 -59 -63 0 -28 1 -29 12
-12 28 45 45 53 128 65 46 6 153 23 238 37 186 31 201 28 201 -40 l0 -45 -32
9 c-23 7 -60 3 -146 -16 -96 -22 -121 -24 -152 -15 -21 6 -47 11 -59 11 -38 0
-22 -18 28 -31 47 -12 49 -13 39 -39 l-9 -27 -164 0 c-162 0 -163 0 -156 21 5
12 12 48 16 81 4 33 11 68 16 77 11 20 54 34 129 43 30 3 102 15 160 25 152
28 302 48 328 44 12 -2 33 -6 47 -9z m117 -95 c28 -21 53 -30 79 -30 72 0 87
-12 93 -77 9 -94 26 -216 32 -241 6 -22 4 -21 -102 17 l-109 38 -22 124 c-21
122 -28 199 -18 199 3 0 24 -13 47 -30z m-175 -118 c6 -4 15 -36 19 -71 l7
-64 -24 7 c-130 36 -218 56 -250 56 -40 0 -48 11 -30 39 15 24 249 52 278 33z
m-64 -148 c60 -19 116 -34 125 -34 17 0 185 -53 352 -112 114 -40 361 -163
430 -214 30 -22 96 -62 145 -88 60 -31 146 -92 255 -182 91 -74 171 -142 178
-151 6 -9 12 -32 12 -51 l0 -34 -52 44 c-53 45 -158 105 -158 91 0 -5 24 -23
53 -40 28 -17 73 -52 100 -76 44 -41 47 -47 47 -95 l0 -50 -55 53 c-58 57
-137 109 -156 103 -6 -2 25 -31 69 -65 106 -82 177 -174 233 -298 34 -75 33
-209 -2 -285 -42 -91 -123 -169 -231 -223 -84 -41 -241 -90 -361 -111 l-38 -7
22 38 c24 42 56 56 194 88 67 15 213 90 201 102 -3 4 -36 -8 -73 -25 -38 -17
-108 -40 -156 -52 -49 -11 -98 -25 -109 -31 -18 -10 -20 -9 -14 7 4 10 10 37
13 61 5 37 7 41 18 26 11 -14 15 -8 32 42 l19 58 85 17 c46 10 109 28 139 41
62 26 150 77 150 87 0 4 9 18 20 32 l19 25 -6 -37 c-3 -23 -2 -38 5 -38 15 0
22 26 22 84 0 67 -29 126 -115 232 -83 105 -145 160 -275 247 -58 39 -122 84
-143 100 -21 16 -111 60 -200 97 -89 37 -196 83 -237 103 -41 19 -106 43 -145
52 -38 9 -108 29 -155 45 -47 16 -125 34 -175 40 -49 6 -129 20 -176 30 -99
22 -238 36 -539 52 -269 14 -507 1 -668 -38 -152 -36 -331 -93 -374 -120 -77
-49 -151 -142 -162 -206 -9 -52 8 -48 28 6 9 24 24 51 34 59 16 15 17 13 14
-27 -3 -30 3 -56 19 -87 25 -49 37 -39 19 16 -7 22 -9 59 -5 101 7 61 10 67
45 90 84 56 384 143 545 159 59 5 60 5 30 -11 -38 -20 -72 -52 -93 -86 -10
-17 -25 -28 -38 -28 -51 0 -116 -106 -99 -161 5 -16 -2 -23 -40 -40 -26 -12
-66 -22 -89 -23 -40 -1 -41 -2 -39 -35 1 -39 34 -78 74 -86 l29 -7 -33 -39
c-38 -44 -57 -97 -57 -158 0 -45 12 -51 43 -23 19 16 20 16 9 -4 -6 -12 -17
-54 -23 -93 -7 -39 -15 -71 -19 -71 -14 0 -177 128 -203 161 -46 56 -116 169
-122 200 -9 40 -25 46 -25 9 0 -53 20 -90 125 -226 28 -37 159 -145 203 -168
23 -12 31 -24 34 -50 l4 -36 -36 22 c-19 11 -60 34 -90 50 -139 73 -245 185
-311 328 -42 90 -44 100 -44 185 0 80 4 97 31 155 17 36 49 81 70 101 73 67
202 138 319 173 159 48 263 74 320 81 28 4 57 11 65 16 46 32 -274 -27 -460
-86 -41 -12 -76 -22 -77 -21 -6 6 70 173 84 184 49 36 306 92 421 92 28 0 124
16 214 36 214 48 263 52 583 46 l270 -5 108 -33z m-940 -363 c-76 -55 -104
-119 -47 -108 13 2 24 3 24 1 0 -15 -106 -78 -152 -91 -32 -9 -57 -21 -55 -27
2 -6 18 -21 37 -33 l33 -23 -27 0 c-46 0 -45 -29 3 -71 84 -74 173 -101 277
-82 l52 10 5 -37 c12 -89 72 -166 165 -212 60 -30 75 -33 152 -32 94 0 151 20
219 73 42 34 86 108 96 164 8 43 11 44 45 17 14 -11 41 -20 61 -20 l37 0 -10
-42 c-26 -118 48 -248 177 -309 52 -25 72 -29 147 -29 78 0 92 3 149 33 57 29
118 89 131 128 3 9 15 4 39 -14 70 -53 151 -71 214 -47 14 5 57 34 94 64 79
63 76 65 87 -56 8 -77 32 -125 69 -134 14 -3 25 -11 25 -17 0 -23 -44 -57 -73
-57 -32 0 -33 5 2 -90 20 -55 28 -150 13 -150 -5 0 -14 11 -20 25 -18 39 -32
29 -32 -23 0 -93 -63 -243 -127 -304 l-29 -28 4 35 c7 55 -10 41 -51 -45 -33
-71 -44 -85 -110 -133 -39 -29 -99 -83 -131 -118 -63 -68 -64 -67 -39 21 6 22
-1 18 -48 -24 -56 -50 -130 -91 -189 -102 l-33 -7 22 22 c31 31 19 38 -21 13
-57 -35 -153 -62 -220 -62 -56 1 -61 2 -44 15 10 7 16 18 15 23 -2 5 -49 -13
-104 -39 -102 -49 -102 -66 0 -31 42 14 55 15 75 5 34 -17 116 -16 176 2 84
25 97 22 116 -33 10 -28 36 -66 63 -94 41 -40 45 -49 36 -67 -7 -12 -16 -21
-21 -21 -6 0 -35 20 -66 45 -61 50 -113 79 -160 89 -25 6 -31 11 -27 26 8 31
-23 35 -100 12 -87 -26 -261 -36 -253 -15 21 54 -257 2 -334 -64 l-30 -25 -11
31 c-6 17 -14 31 -17 30 -4 0 -20 -19 -37 -41 -18 -25 -64 -62 -116 -95 -100
-61 -170 -133 -217 -221 -18 -34 -37 -62 -42 -62 -27 0 -190 43 -190 50 0 5
31 34 69 65 74 60 99 93 59 80 -43 -14 -98 -17 -98 -6 0 19 74 61 145 83 78
24 111 42 126 69 8 17 5 18 -39 12 -33 -4 -58 -1 -77 9 l-28 15 44 11 c24 6
62 26 83 44 48 39 109 132 131 199 9 27 18 49 20 49 15 0 75 -33 90 -50 30
-34 106 -68 166 -76 30 -4 65 -15 79 -26 40 -29 143 -43 204 -28 50 12 121 48
113 57 -3 2 -32 -3 -65 -11 -73 -19 -167 -20 -207 -1 -20 9 -24 14 -12 14 23
1 91 30 85 36 -2 3 -30 0 -61 -6 -66 -14 -136 -3 -218 32 -48 21 -50 23 -28
31 29 11 14 22 -46 33 -104 18 -207 111 -295 267 -38 70 -55 83 -46 39 17 -87
18 -97 5 -76 -7 11 -45 52 -84 90 -65 62 -75 78 -96 142 -23 74 -39 86 -39 30
l-1 -32 -19 36 c-26 49 -60 222 -60 306 0 108 -27 120 -45 20 -10 -54 -23 -54
-31 -2 -7 52 16 195 47 287 10 31 19 60 19 63 0 15 -29 1 -63 -32 -36 -35 -39
-36 -32 -13 18 58 50 112 103 171 46 50 52 61 32 54 -49 -16 -98 -10 -125 15
-33 31 -32 38 5 32 62 -9 119 25 235 141 l110 110 -42 -5 c-24 -4 -43 -3 -43
1 0 13 74 82 104 98 49 25 129 51 160 52 l29 1 -40 -29z m912 -46 c33 -8 75
-15 93 -15 l33 0 -34 -30 c-19 -16 -46 -47 -62 -70 -15 -22 -34 -40 -41 -40
-18 0 -44 52 -59 117 -14 60 -17 59 70 38z m240 -45 c18 -7 17 -8 -10 -15 -16
-4 -36 -8 -42 -11 -16 -4 -17 8 -1 24 14 14 24 14 53 2z m-1439 -70 c10 0 -1
-19 -28 -50 -23 -27 -44 -47 -46 -45 -2 2 -1 17 3 34 8 35 47 90 53 73 2 -7
10 -12 18 -12z m930 -151 c112 -83 113 -85 114 -125 0 -58 -43 -138 -98 -180
-158 -120 -410 -56 -468 119 -44 134 50 281 203 316 48 11 91 -12 249 -130z
m1153 -18 c7 -5 12 -14 9 -21 -2 -7 -10 -4 -22 9 -19 21 -12 28 13 12z m-446
-27 c45 -23 105 -82 130 -129 27 -51 29 -155 4 -201 -60 -113 -196 -166 -330
-130 -120 33 -203 121 -214 229 -6 56 10 127 29 127 6 0 47 17 92 37 100 45
203 82 234 82 13 1 37 -6 55 -15z m536 -20 c14 -12 -19 -1 -35 12 -18 14 -18
14 6 3 14 -6 27 -13 29 -15z m-9 -46 c0 -27 -15 -21 -44 17 l-27 35 35 -17
c20 -10 36 -26 36 -35z m96 -12 c191 -112 280 -187 381 -321 81 -107 87 -153
28 -223 -43 -51 -243 -130 -332 -132 -18 0 -23 6 -23 25 0 14 -6 41 -14 59
-13 32 -13 34 11 47 27 15 63 76 63 109 0 15 -6 20 -28 20 -45 0 -59 25 -72
130 -6 52 -20 114 -31 139 -17 40 -18 46 -4 67 22 34 19 44 -14 44 -17 0 -33
5 -36 11 -7 10 1 59 9 59 2 0 30 -15 62 -34z m-52 -141 c7 -19 -5 -19 -30 0
-19 14 -19 14 2 15 12 0 24 -7 28 -15z m-504 -1287 c0 -5 -15 -8 -32 -8 l-33
1 24 20 c19 15 26 17 32 7 5 -7 9 -16 9 -20z m-15 -43 c33 -3 75 -9 93 -12
l33 -5 -38 -28 c-37 -27 -40 -27 -128 -19 -49 4 -100 8 -112 8 -13 1 -23 7
-23 16 0 16 77 55 100 50 8 -2 42 -6 75 -10z m290 -22 l-25 -28 57 -6 c66 -7
127 -30 161 -61 22 -21 82 -109 82 -120 0 -17 -36 -15 -71 2 -21 11 -39 16
-39 11 0 -5 5 -13 10 -16 15 -9 64 -111 85 -175 41 -128 96 -201 162 -218 l38
-9 -45 -21 c-54 -26 -129 -28 -172 -6 -29 15 -31 15 -24 -2 9 -24 -10 -34 -65
-34 -70 0 -149 26 -149 50 0 11 7 20 15 20 30 0 75 30 91 61 8 17 13 33 10 36
-3 3 -36 6 -73 7 -37 1 -91 10 -120 20 -47 16 -53 21 -67 63 -9 26 -16 55 -16
65 0 11 -4 16 -10 13 -5 -3 -10 -26 -10 -51 l0 -45 -92 77 c-51 43 -99 83
-107 90 -12 11 -8 22 27 75 23 34 42 72 42 83 0 15 3 17 9 8 4 -7 6 -24 4 -36
-7 -34 15 -42 27 -10 16 40 47 81 85 110 43 33 141 73 178 74 l28 0 -26 -27z
m-1742 -43 c-41 -41 -69 -60 -86 -60 -46 0 -252 -57 -307 -85 -70 -35 -120
-73 -120 -91 0 -19 14 -17 34 5 23 26 113 64 220 95 104 31 109 31 127 10 7
-9 25 -20 38 -26 24 -9 20 -11 -44 -33 -106 -35 -186 -133 -117 -143 30 -5 27
-11 -23 -55 l-44 -39 -88 27 c-128 39 -178 67 -192 107 -11 29 -13 31 -22 15
-15 -26 6 -72 45 -102 49 -37 119 -63 281 -105 205 -53 353 -77 648 -105 39
-3 57 -12 90 -41 l41 -37 -160 7 c-317 13 -485 40 -721 117 -217 71 -315 131
-329 204 -21 113 44 171 300 270 137 53 233 82 351 105 149 30 150 29 78 -40z
m2003 9 c96 -36 162 -112 204 -234 25 -72 25 -73 -1 -44 l-20 24 6 -35 c16
-94 107 -225 177 -255 l31 -13 -42 -28 c-32 -21 -59 -29 -104 -32 -61 -4 -62
-4 -44 15 26 29 21 37 -27 52 -68 20 -100 65 -149 211 -14 41 -28 83 -32 92
-5 12 2 21 29 33 20 10 36 19 36 20 0 16 -112 164 -136 180 -73 47 -73 46 -24
39 25 -4 68 -15 96 -25z m179 5 c18 -8 70 -47 116 -85 109 -90 173 -121 267
-127 82 -5 85 -12 25 -57 -22 -16 -53 -40 -69 -52 l-29 -23 30 7 c30 6 30 6
12 -15 -29 -32 -116 -64 -188 -70 l-66 -4 -22 37 c-16 28 -19 40 -10 46 18 11
5 95 -26 164 -32 73 -66 118 -116 154 -21 16 -35 31 -32 35 12 11 75 6 108
-10z m-766 -50 c6 -6 -8 -49 -23 -69 -15 -20 -17 -19 -56 22 -22 23 -40 47
-40 52 0 8 108 4 119 -5z m-379 -2 c0 -4 -5 -13 -11 -19 -8 -8 -2 -13 23 -18
78 -17 179 -84 335 -222 170 -149 273 -203 390 -203 49 0 55 -2 43 -14 -23
-21 -78 -36 -134 -36 -47 -1 -49 -2 -32 -15 11 -8 28 -15 39 -15 33 0 8 -18
-40 -29 -33 -8 -69 -9 -113 -2 -88 12 -98 2 -23 -24 21 -7 38 -17 38 -22 0 -4
-18 -14 -40 -21 -46 -16 -120 -10 -163 12 -28 15 -29 18 -34 108 -4 66 -12
108 -28 146 -25 58 -70 102 -103 102 l-21 0 22 -16 c48 -34 92 -161 92 -267 0
-60 -23 -164 -39 -180 -8 -8 -11 6 -11 54 l-1 64 -31 -60 c-21 -39 -70 -98
-140 -168 -88 -89 -111 -119 -130 -168 -13 -32 -26 -59 -31 -59 -18 0 -19 37
-2 107 29 126 35 141 53 145 24 7 51 64 64 136 22 116 -33 277 -111 329 -51
35 -60 28 -19 -14 72 -73 110 -218 89 -336 -12 -69 -31 -99 -32 -51 0 16 -4
38 -8 49 -6 15 -9 10 -15 -25 -4 -25 -21 -92 -39 -150 -22 -74 -31 -125 -31
-172 l0 -66 -39 20 c-22 11 -62 40 -88 65 -51 48 -71 94 -98 225 -7 31 -25 76
-41 100 -32 46 -38 97 -21 171 12 50 -6 49 -26 -3 -9 -22 -19 -40 -23 -40 -4
0 -19 9 -32 20 -42 33 -58 79 -58 172 -1 77 -2 81 -15 58 -9 -16 -14 -54 -15
-103 l0 -78 -32 5 c-18 3 -64 8 -103 11 -75 7 -261 33 -283 40 -21 7 33 99 99
170 33 35 91 80 138 108 44 26 89 59 100 73 l20 25 3 -26 3 -26 35 26 c49 38
111 63 209 86 110 27 121 16 32 -33 -33 -18 -44 -45 -13 -33 53 22 128 37 212
41 84 5 104 3 175 -20 91 -29 95 -30 95 -16 0 6 -27 23 -59 39 -58 27 -59 28
-33 38 34 14 52 15 52 5z m1330 -437 c0 -8 -4 -15 -9 -15 -13 0 -22 16 -14 24
11 11 23 6 23 -9z m-2985 -29 c52 -35 282 -112 421 -141 117 -24 323 -44 522
-52 174 -6 184 -7 192 -27 5 -12 20 -36 34 -55 34 -45 33 -58 -5 -66 -46 -10
-125 -85 -89 -85 5 0 26 11 46 25 20 14 47 25 59 25 19 0 23 -7 28 -45 13 -90
66 -165 158 -222 l60 -37 -6 -73 c-5 -47 -4 -73 3 -73 13 0 21 22 28 84 5 45
9 52 28 52 14 -1 22 6 24 21 2 13 8 20 16 17 8 -3 25 22 46 71 29 68 41 83
113 142 84 69 91 70 104 10 4 -22 8 -25 19 -16 18 15 18 24 -2 65 -15 32 -15
36 1 61 15 23 19 24 27 10 5 -10 15 -17 23 -17 19 0 63 66 71 106 6 31 6 31
37 16 66 -33 165 -25 227 19 40 27 166 42 215 24 49 -17 118 -19 165 -4 34 11
107 17 280 22 47 2 94 7 104 12 18 8 19 5 12 -41 -3 -27 -9 -109 -13 -181 -6
-129 -7 -133 -28 -133 -39 0 -50 26 -50 119 0 47 -4 96 -8 108 -13 36 -70 46
-190 34 -56 -6 -168 -16 -249 -22 -193 -16 -191 -14 -197 -176 -3 -100 -6
-120 -26 -149 -13 -18 -28 -62 -34 -96 -17 -92 -25 -273 -16 -353 6 -62 11
-73 44 -106 49 -49 118 -64 263 -55 l106 6 7 -65 c9 -81 25 -75 25 9 l0 63 38
6 c20 3 65 9 99 13 l61 6 -4 -158 c-3 -88 -9 -203 -14 -257 -12 -122 -13 -190
-1 -183 5 3 12 21 15 39 13 70 36 346 36 434 0 120 7 136 62 150 23 6 51 14
61 18 15 6 17 0 19 -56 4 -162 -20 -419 -53 -558 -28 -122 -44 -272 -32 -307
10 -26 11 -22 18 44 4 40 11 75 15 77 5 3 14 -19 22 -48 22 -88 16 -341 -16
-570 -29 -216 -30 -200 10 -515 13 -106 24 -223 24 -261 l0 -69 -62 -57 c-78
-70 -207 -147 -358 -212 -145 -63 -209 -84 -390 -128 -302 -72 -523 -95 -757
-77 -522 41 -1055 216 -1260 415 -75 72 -76 76 -63 544 10 390 12 414 40 556
17 81 30 150 30 154 0 4 5 2 10 -3 6 -6 13 -54 17 -108 7 -116 24 -108 24 12
0 88 -17 193 -66 407 -39 175 -41 186 -55 330 -6 61 -22 179 -35 263 -28 172
-30 263 -14 549 9 148 8 235 -1 356 -10 146 -32 315 -46 360 -6 20 4 22 31 3z
m-33 -302 c3 -75 3 -76 -41 -137 -55 -79 -84 -143 -77 -171 6 -26 44 -46 86
-46 28 0 30 -2 30 -41 l0 -41 -47 6 c-194 26 -217 61 -143 215 42 86 170 291
182 291 3 0 8 -34 10 -76z m2869 3 c3 -20 3 -65 0 -100 l-6 -62 -80 -12 c-44
-6 -145 -16 -224 -22 -83 -6 -149 -15 -155 -22 -16 -17 265 -5 383 16 112 20
124 14 125 -62 l1 -48 -85 -7 c-47 -3 -120 -13 -162 -22 -42 -9 -92 -16 -110
-16 -43 0 -108 -18 -108 -30 0 -16 52 -12 213 15 83 15 164 25 181 23 l31 -3
0 -70 c-1 -142 -16 -155 -210 -165 -71 -4 -148 -13 -170 -20 -24 -7 -63 -10
-100 -6 -55 6 -58 5 -41 -9 25 -19 127 -19 181 0 71 26 76 23 73 -42 l-3 -58
-45 -7 c-25 -3 -84 -7 -131 -7 -66 -1 -90 3 -99 14 -10 12 -12 49 -7 154 7
147 16 186 47 208 14 10 20 26 20 51 0 50 -23 82 -59 82 -25 0 -29 4 -35 40
-9 55 4 147 23 171 13 16 37 21 131 30 63 6 147 14 185 19 39 4 106 7 150 6
l80 -1 6 -38z m-2866 -284 c-5 -33 -11 -43 -25 -43 -20 0 -50 25 -50 41 0 13
28 67 54 104 l21 30 3 -45 c2 -25 1 -64 -3 -87z m3036 -37 c48 -104 79 -215
79 -287 0 -54 -2 -59 -41 -94 -49 -44 -102 -68 -200 -89 -112 -24 -453 -59
-530 -54 -59 3 -73 8 -97 31 -26 27 -27 30 -30 165 -4 162 11 314 36 357 15
25 24 30 58 30 37 0 39 -2 42 -34 2 -23 -3 -40 -16 -55 -32 -34 -44 -101 -46
-243 -1 -125 0 -134 22 -155 20 -21 32 -23 120 -23 90 0 181 14 412 62 86 18
142 43 164 75 32 45 14 173 -39 278 -12 25 -25 66 -27 92 l-5 46 30 -10 c24
-9 37 -26 68 -92z m-81 -82 c23 -63 36 -159 26 -198 -6 -25 -35 -45 -83 -60
-20 -7 -23 -4 -23 23 0 38 -18 41 -26 4 -3 -16 -7 -33 -9 -39 -2 -6 -36 -16
-77 -23 -40 -7 -85 -14 -100 -17 -28 -5 -28 -5 -28 44 l0 49 78 5 c90 5 151
30 169 69 7 15 14 62 15 105 3 71 10 93 30 94 4 0 16 -25 28 -56z"/>
<path d="M2329 6940 c-1 -3 -3 -47 -5 -99 -3 -86 5 -131 24 -131 11 0 6 182
-6 210 -6 14 -12 23 -13 20z"/>
<path d="M1295 6670 c-16 -4 -53 -8 -81 -9 -68 -1 -114 -11 -114 -24 0 -15
179 -2 223 17 59 24 42 34 -28 16z"/>
<path d="M755 6618 c-126 -20 -162 -29 -194 -49 -45 -27 -33 -34 26 -16 26 9
90 23 142 32 51 8 98 18 102 21 10 6 2 25 -9 23 -4 -1 -34 -6 -67 -11z"/>
<path d="M1097 6550 c-27 -5 -52 -11 -55 -14 -3 -3 107 -6 244 -6 199 1 245 3
229 13 -24 14 -345 20 -418 7z"/>
<path d="M1926 6470 c6 -6 42 -16 80 -22 38 -6 104 -22 146 -35 84 -27 200
-43 183 -25 -5 5 -45 19 -88 31 -43 12 -89 29 -103 38 -31 20 -236 33 -218 13z"/>
<path d="M2595 6280 c10 -15 102 -60 124 -60 10 0 45 -13 76 -30 70 -37 86
-38 54 -4 -29 31 -71 54 -99 54 -11 0 -47 11 -80 25 -64 27 -85 31 -75 15z"/>
<path d="M320 5903 c0 -15 15 -29 74 -71 33 -23 62 -39 65 -36 3 3 -14 24 -39
46 -47 42 -100 74 -100 61z"/>
<path d="M782 5794 c-20 -14 -52 -63 -52 -80 0 -4 9 1 20 11 21 19 22 18 34
-36 9 -42 45 -79 105 -107 49 -24 60 -35 88 -87 17 -33 57 -134 88 -224 92
-268 155 -374 276 -465 142 -107 271 -150 454 -150 137 0 202 15 301 70 92 50
160 110 269 234 174 199 205 223 303 235 40 4 75 16 98 31 19 13 37 24 39 24
3 0 5 -13 5 -30 0 -39 16 -39 25 0 7 34 -1 67 -23 93 -23 26 -35 21 -29 -12 6
-27 3 -31 -39 -52 -38 -18 -57 -21 -112 -16 -37 2 -76 8 -87 12 -18 7 -17 5 4
-18 l24 -27 -44 0 c-48 0 -138 33 -188 69 -39 28 -41 9 -2 -30 l29 -29 -32 0
c-40 0 -130 26 -165 48 -14 8 -43 32 -64 51 l-38 36 6 -27 c7 -27 5 -28 -28
-28 -48 0 -117 26 -149 57 -23 22 -33 25 -67 19 -52 -8 -91 7 -91 35 0 17 -4
20 -22 15 -69 -19 -122 -25 -165 -16 -82 15 -95 24 -71 48 18 18 6 22 -37 12
-55 -13 -156 -12 -194 1 l-32 11 21 23 20 22 -79 -5 c-57 -3 -92 0 -129 12
-60 20 -82 41 -52 49 32 8 23 27 -13 27 -57 0 -125 29 -153 65 -32 43 -42 96
-20 114 35 29 7 43 -32 15z"/>
<path d="M1504 6056 c-104 -46 -97 -190 11 -226 26 -9 44 -9 70 0 109 36 115
182 9 226 -41 17 -50 17 -90 0z"/>
<path d="M2144 5896 c-29 -29 -34 -41 -34 -83 0 -55 17 -86 60 -108 107 -56
221 57 166 164 -22 41 -59 61 -112 61 -39 0 -51 -5 -80 -34z"/>
<path d="M3294 3738 c-20 -9 -44 -47 -44 -68 0 -17 20 -11 27 8 3 9 15 27 26
39 24 27 20 34 -9 21z"/>
<path d="M475 3651 c-3 -5 10 -15 29 -21 114 -37 143 -127 125 -385 -9 -127
-8 -178 5 -311 9 -87 20 -162 25 -167 4 -4 7 160 6 365 -1 331 -3 378 -18 413
-24 53 -44 74 -92 96 -44 21 -71 24 -80 10z"/>
<path d="M792 3606 c-32 -15 -82 -62 -82 -77 0 -17 24 -9 50 16 29 28 84 41
125 31 14 -4 44 -23 66 -43 43 -39 53 -39 43 1 -16 63 -130 104 -202 72z"/>
<path d="M1195 3595 c-5 -2 -22 -6 -38 -9 -32 -7 -110 -74 -101 -87 3 -5 21 3
41 18 26 20 50 28 93 31 75 5 124 -11 156 -54 29 -37 44 -43 44 -18 0 24 -36
70 -73 92 -31 19 -101 35 -122 27z"/>
<path d="M2334 3576 c-39 -17 -72 -59 -80 -102 -9 -51 1 -51 27 -2 32 57 77
80 148 75 47 -3 59 -9 89 -41 41 -45 54 -39 27 12 -35 64 -133 92 -211 58z"/>
<path d="M1022 3400 c-25 -65 -26 -268 -3 -455 11 -93 21 -201 21 -240 1 -74
34 -352 44 -362 15 -15 17 36 7 134 -7 60 -16 194 -21 298 -5 105 -12 201 -16
215 -4 14 -10 120 -13 235 -5 190 -7 207 -19 175z"/>
<path d="M1418 3394 c-3 -5 -2 -54 3 -109 4 -55 10 -275 12 -490 3 -214 8
-400 12 -412 4 -13 12 -23 19 -23 8 0 11 109 10 403 0 327 -3 421 -17 505 -16
102 -29 143 -39 126z"/>
<path d="M2194 3243 c-4 -38 -3 -135 2 -218 11 -190 11 -516 1 -620 -11 -112
9 -87 30 36 18 108 22 318 10 594 -9 218 -15 275 -27 275 -5 0 -12 -30 -16
-67z"/>
<path d="M1821 2815 c-1 -5 -6 -48 -11 -95 -6 -47 -12 -172 -15 -277 -4 -161
-3 -193 9 -193 8 0 17 7 20 16 11 29 18 497 7 529 -5 17 -10 26 -10 20z"/>
<path d="M2561 2618 c-20 -130 -30 -297 -36 -625 -4 -213 -3 -323 4 -323 19 0
30 147 42 545 5 176 12 355 15 398 8 99 -9 102 -25 5z"/>
<path d="M685 2513 c4 -27 7 -112 6 -190 -1 -93 3 -151 11 -170 12 -28 13 -27
16 22 l4 50 23 -58 c29 -71 80 -137 106 -137 16 0 12 8 -21 53 -62 82 -90 162
-101 294 -8 103 -28 183 -45 183 -3 0 -3 -21 1 -47z"/>
<path d="M2921 2403 c-6 -16 -22 -185 -36 -378 -22 -302 -24 -364 -14 -455 6
-58 15 -109 20 -115 5 -5 9 44 9 115 0 190 32 771 46 838 6 31 -11 28 -25 -5z"/>
<path d="M1094 2195 c-9 -19 -9 -76 -2 -605 2 -205 0 -267 -17 -380 -16 -109
-20 -180 -18 -372 1 -265 4 -276 73 -322 70 -46 165 -46 220 0 43 37 37 46
-16 22 -34 -15 -60 -19 -95 -16 -57 6 -125 47 -139 84 -6 14 -11 123 -12 242
-1 173 2 248 19 372 29 212 39 467 23 606 -7 60 -16 172 -19 249 -5 99 -10
134 -17 120z"/>
<path d="M1427 2203 c-3 -5 -11 -59 -18 -119 -9 -91 -9 -123 4 -194 14 -81 42
-168 52 -159 2 3 -3 47 -11 99 -12 70 -14 130 -10 225 6 117 -1 174 -17 148z"/>
<path d="M2145 2124 c-4 -36 -5 -104 -1 -152 3 -48 9 -158 12 -245 5 -117 10
-155 18 -147 12 12 12 485 1 568 -9 62 -22 51 -30 -24z"/>
<path d="M650 2104 c0 -3 11 -19 25 -36 14 -16 25 -35 25 -42 0 -7 16 -34 36
-60 19 -25 42 -63 51 -84 20 -45 30 -20 13 32 -14 42 -79 145 -111 175 -22 21
-39 27 -39 15z"/>
<path d="M3161 1907 c-10 -45 -9 -62 9 -127 15 -59 20 -107 20 -229 0 -123 3
-152 12 -143 9 9 14 59 16 155 3 114 0 153 -14 197 -10 30 -18 88 -18 128 0
39 -3 72 -7 72 -3 0 -11 -24 -18 -53z"/>
<path d="M720 1843 c0 -49 10 -163 22 -254 22 -165 22 -168 4 -310 -10 -79
-20 -191 -23 -249 -6 -112 -15 -139 -65 -195 -45 -52 -65 -61 -89 -39 -23 20
-33 14 -24 -15 9 -28 52 -38 84 -20 14 8 40 33 57 56 l32 42 7 -62 c7 -57 11
-66 55 -109 57 -55 116 -76 152 -56 22 12 21 13 -17 18 -52 8 -74 21 -118 69
-47 52 -53 99 -39 271 36 418 37 467 14 637 -12 87 -22 174 -22 193 0 52 -11
110 -21 110 -5 0 -9 -39 -9 -87z"/>
<path d="M1804 1813 c3 -21 9 -105 12 -188 6 -142 5 -155 -20 -240 -45 -154
-52 -233 -33 -370 9 -66 20 -162 23 -214 6 -75 9 -90 17 -70 5 15 6 94 1 204
-11 243 -7 312 21 435 13 58 26 134 30 170 6 75 -10 261 -25 290 -18 34 -33
24 -26 -17z"/>
<path d="M2613 1722 c-7 -22 -37 -77 -68 -123 -70 -104 -133 -290 -94 -277 7
2 23 40 38 84 14 44 42 107 62 140 63 101 80 143 77 181 l-3 35 -12 -40z"/>
<path d="M2590 1453 c-39 -61 -70 -161 -69 -222 0 -55 5 -46 44 81 15 50 39
103 56 124 16 21 28 42 26 48 -8 25 -29 14 -57 -31z"/>
<path d="M1435 1300 c-6 -9 -10 -125 -10 -295 0 -154 -4 -298 -9 -320 -12 -56
7 -34 29 35 21 64 23 155 10 415 -7 126 -13 176 -20 165z"/>
<path d="M2911 1170 c0 -47 4 -94 9 -105 14 -36 23 9 16 80 -11 108 -25 122
-25 25z"/>
<path d="M3208 1210 c-17 -88 -18 -170 -3 -264 9 -55 13 -119 10 -145 -6 -44
-5 -45 10 -26 15 17 16 36 10 135 -4 63 -10 165 -14 225 -5 80 -9 100 -13 75z"/>
<path d="M2555 1165 c-14 -47 -13 -526 2 -513 19 16 23 101 15 328 -5 159 -10
207 -17 185z"/>
<path d="M2176 972 c-4 -6 -4 -33 -1 -59 4 -26 -1 -97 -9 -157 -30 -207 -14
-307 19 -121 27 151 20 384 -9 337z"/>
<path d="M2947 963 c-11 -19 -19 -82 -26 -198 -8 -142 -18 -165 -87 -200 -41
-21 -137 -27 -181 -11 -38 14 -27 -10 13 -29 88 -41 215 3 260 91 l20 41 23
-18 c42 -34 122 -21 174 29 38 37 36 61 -3 28 -37 -30 -99 -49 -135 -40 -50
12 -57 39 -49 183 6 118 4 146 -9 124z"/>
<path d="M550 651 c0 -16 77 -78 143 -116 179 -99 523 -226 622 -229 72 -1 88
16 25 27 -220 39 -598 188 -728 287 -55 42 -62 46 -62 31z"/>
<path d="M3214 604 c-94 -73 -299 -167 -456 -209 -38 -10 -68 -22 -68 -26 0
-23 123 5 252 57 156 63 283 141 337 207 25 31 -5 18 -65 -29z"/>
<path d="M1748 579 c-9 -20 -19 -45 -22 -57 -11 -35 -73 -82 -108 -82 -41 0
-114 43 -132 79 -8 15 -22 33 -30 40 -26 21 -21 -29 7 -70 36 -54 82 -79 143
-79 48 0 59 4 93 36 26 23 46 53 56 84 21 63 15 101 -7 49z"/>
<path d="M2522 520 c-37 -48 -104 -73 -193 -74 -68 -1 -80 2 -102 22 -28 26
-45 15 -27 -18 17 -32 51 -44 125 -44 53 0 82 5 119 23 53 26 116 83 116 106
0 22 -12 17 -38 -15z"/>
<path d="M1790 464 c0 -17 25 -46 52 -60 47 -24 170 -15 228 17 61 34 64 54 3
27 -69 -32 -189 -32 -232 0 -29 21 -51 28 -51 16z"/>
<path d="M2485 329 c-38 -10 -133 -29 -210 -41 -179 -28 -519 -31 -655 -5 -46
9 -86 14 -89 11 -19 -19 82 -48 220 -63 91 -10 441 8 574 29 66 10 285 76 285
86 0 9 -58 1 -125 -17z"/>
<path d="M2792 3572 c-12 -2 -27 -12 -33 -24 -13 -23 -4 -37 13 -20 18 18 68
15 75 -4 11 -29 -10 -69 -37 -71 -14 0 -29 -1 -34 -2 -17 -2 17 -31 36 -31 26
0 68 44 68 72 0 54 -38 88 -88 80z"/>
<path d="M3056 3564 c-9 -8 -16 -20 -16 -25 0 -12 17 -12 25 1 3 6 17 10 30
10 32 0 51 -34 36 -66 -9 -20 -18 -24 -51 -24 -47 0 -53 -15 -10 -25 42 -9 68
2 86 36 35 69 -47 146 -100 93z"/>
<path d="M3070 3190 c0 -5 9 -10 19 -10 10 0 29 -8 41 -18 33 -27 20 -60 -26
-64 -36 -3 -45 -17 -21 -32 21 -14 65 1 83 29 18 28 13 64 -12 89 -17 18 -84
22 -84 6z"/>
<path d="M2827 3156 c-5 -12 1 -16 23 -16 36 0 59 -33 39 -56 -9 -11 -22 -14
-46 -9 -18 3 -33 2 -33 -3 0 -18 25 -32 57 -32 28 0 36 5 50 35 16 34 16 36
-4 63 -23 32 -77 43 -86 18z"/>
</g>
</svg>
